<?xml version="1.0" encoding="UTF-8" standalone="no"?>
<!-- Created with Inkscape (http://www.inkscape.org/) -->

<svg
   width="210mm"
   height="210mm"
   viewBox="0 0 210 210"
   version="1.1"
   id="svg1"
   xml:space="preserve"
   inkscape:version="1.3 (0e150ed, 2023-07-21)"
   sodipodi:docname="logo_inkscape.svg"
   inkscape:export-filename="logo.png"
   inkscape:export-xdpi="96"
   inkscape:export-ydpi="96"
   xmlns:inkscape="http://www.inkscape.org/namespaces/inkscape"
   xmlns:sodipodi="http://sodipodi.sourceforge.net/DTD/sodipodi-0.dtd"
   xmlns="http://www.w3.org/2000/svg"
   xmlns:svg="http://www.w3.org/2000/svg"><sodipodi:namedview
     id="namedview1"
     pagecolor="#ffffff"
     bordercolor="#111111"
     borderopacity="1"
     inkscape:showpageshadow="0"
     inkscape:pageopacity="0"
     inkscape:pagecheckerboard="1"
     inkscape:deskcolor="#d1d1d1"
     inkscape:document-units="mm"
     inkscape:zoom="0.67987496"
     inkscape:cx="105.90183"
     inkscape:cy="249.31055"
     inkscape:window-width="1792"
     inkscape:window-height="972"
     inkscape:window-x="0"
     inkscape:window-y="57"
     inkscape:window-maximized="0"
     inkscape:current-layer="layer1" /><defs
     id="defs1" /><g
     inkscape:label="Layer 1"
     inkscape:groupmode="layer"
     id="layer1"><path
       id="path5"
       style="fill:#4dffa6;fill-opacity:1;stroke:#24224b;stroke-width:5.55699;stroke-dasharray:none;stroke-opacity:1"
       d="M 33.886043,39.272278 C 32.619854,26.84598 31.089867,24.488986 39.224714,27.203506 c 9.35044,3.349589 19.928451,9.120371 27.357667,15.995094 -3.613087,1.279747 -10.044414,7.2599 -14.562676,3.121217 -2.554959,-2.116709 -10.698273,-10.321931 -9.931844,-4.325991 0.311026,9.83966 2.439811,19.939839 7.791019,28.730378 1.385527,3.768782 6.284788,7.488128 6.908615,10.634788 -1.532887,1.655228 -3.065769,3.31042 -4.598626,4.965647 C 46.801754,77.984842 40.099836,70.10156 36.936174,60.684322 34.659106,54.136917 34.414829,47.347682 33.869613,40.644249 c 0.0055,-0.457323 -0.676489,-1.831256 -0.670979,-2.288581 z m 7.163097,84.458462 c 0.647884,-1.95037 -0.244786,-16.32767 2.413678,-14.45976 2.14918,2.8957 8.655967,6.63129 7.759089,10.68321 -0.02174,4.01279 -0.179148,10.56497 0.475928,14.57261 12.822002,-5.17796 21.275557,-15.10773 25.302896,-28.36633 2.273851,-0.44178 11.328334,0.13354 7.081388,5.03095 -4.456997,12.86368 -13.718367,23.41531 -25.42642,30.03078 -3.663209,2.06987 -7.565911,3.75439 -11.635931,5.00385 -2.490814,1.33866 -3.064285,0.28267 -3.464677,-2.3303 -0.360024,-2.34945 -0.618093,-6.52682 -1.35713,-7.83007 -0.71158,-4.21769 -0.754138,-10.41468 -0.95042,-14.64433 z M 46.58517,98.697767 C 52.168902,87.264679 61.711494,77.845714 73.556667,72.9775 c 3.230786,5.367001 2.282765,9.719769 -3.643426,11.297455 -8.32517,5.512196 -14.73022,13.769862 -17.970224,23.323145 -2.097844,-2.38458 -5.468097,-5.67099 -5.357847,-8.900333 z m 14.823911,-4.069054 c 2.446526,-2.168057 4.844465,-7.853065 8.427247,-3.299263 10.7904,6.473337 25.541477,7.140797 37.344442,5.040932 -0.88314,5.317158 -2.39642,12.289058 -8.623385,10.325298 -11.743781,-0.47439 -27.455228,-4.53716 -37.284171,-11.750177 l 0.135809,-0.31669 z m 5.793984,-37.354014 c 2.929849,-0.212355 5.884333,-0.233887 8.828033,-0.335556 7.758594,11.375618 11.723797,24.99191 11.227817,38.190817 -0.813855,1.288092 -10.10443,-0.0198 -8.2245,-4.159579 C 79.045905,79.111292 72.002354,67.381693 64.32703,57.766017 Z m 17.88811,12.151557 c 9.69504,-1.47704 19.964665,-1.428179 29.708985,1.751065 10.63567,3.043322 20.39481,8.919686 29.20812,15.80066 -2.046,1.783576 -4.14899,3.530473 -6.32025,5.196459 -6.38039,4.895622 -13.06879,8.13239 -20.91483,10.50943 1.04863,-5.290368 -1.08929,-9.523704 5.1542,-10.71322 2.64614,-1.704496 11.54526,-5.15479 5.1404,-7.125914 -10.17867,-5.750603 -21.75718,-9.195194 -33.047265,-8.309908 -2.30891,-0.117599 -4.49115,0.306974 -6.74228,0.50625 -0.563476,-2.445843 -2.031415,-5.426394 -2.18708,-7.614822 z"
       inkscape:label="triquetra"
       sodipodi:nodetypes="ccccccccccccccccccscsccccccccccccccccccccccccscccccc" /><path
       id="path1"
       style="fill:#24224b;fill-opacity:1;stroke:none;stroke-width:4.95547;stroke-dasharray:none;stroke-opacity:1"
       d="m 32.605555,83.739382 c 0.07628,-6.067995 1.833387,-11.872367 4.500043,-17.09527 1.575564,3.051835 6.700058,7.449469 8.040512,10.44241 -3.241428,14.032661 -0.921896,23.745208 9.749548,32.598618 4.132232,3.66345 9.159039,6.20904 14.270709,7.90778 -2.645931,4.70766 -6.677913,12.2711 -11.697112,7.58448 -6.25593,-3.42323 -13.674944,-9.48208 -18.047765,-15.03827 -4.998546,-7.33285 -7.076807,-17.87372 -6.815978,-26.399779 z M 46.501337,54.019446 C 56.882251,39.111637 84.066015,40.765207 99.351465,50.831756 104.87736,54.342365 109.21419,62.583901 112.72971,68.108958 109.14787,67.428024 100.553,66.618192 96.948405,66.41903 89.631335,59.125507 81.112384,54.123909 71.095531,55.11425 62.522994,54.798641 55.67416,60.001619 49.994317,65.789406 c -1.081265,-2.60336 -4.290432,-9.211129 -3.49298,-11.76996 z m 30.92491,73.661694 c 2.895798,-3.04654 3.778249,-8.53867 9.020472,-8.22081 12.732496,-3.51962 16.777351,-14.42712 19.846751,-29.04967 -0.20849,-3.768083 -1.16073,-5.708453 -1.55137,-11.422929 2.85811,1.011391 11.08544,0.987963 12.4632,4.016303 0.97447,6.040508 0.97335,13.945458 -1.07073,19.587036 -1.45001,7.57354 -6.2387,14.41669 -12.01173,19.26692 -2.61698,2.19866 -5.894095,3.86159 -8.939105,5.32794 -5.56107,2.66582 -12.139307,1.62042 -18.449057,1.68343 -0.09679,-0.50515 0.708524,-0.74437 0.691587,-1.18823 z"
       inkscape:label="circle"
       sodipodi:nodetypes="ccccccccccccccccccccccsccsc" /><path
       style="color:#000000;fill:#89e029;fill-opacity:1;stroke:#24224b;stroke-width:6.223;stroke-linejoin:round;stroke-dasharray:none;stroke-opacity:1"
       d="M 28.2875,43.552018 C 15.326199,54.663078 3.5943704,84.4861 4.2226696,86.689581 l 1.5808257,5.544044 C 6.6788572,95.303569 20.278167,64.393818 34.005906,56.640589 46.151567,49.780895 53.816032,39.662964 83.098541,41.945762 c 19.193599,2.195863 34.607799,9.205637 52.969019,22.164754 19.70203,13.905445 32.47648,36.938824 57.63944,66.055444 6.75595,7.81747 13.61286,15.93358 3.58686,-2.77594 C 187.26785,108.68051 172.90689,76.045366 147.00541,53.077543 131.92433,39.704585 117.44788,28.999821 77.683847,24.531368 47.374617,24.935229 40.589415,33.006217 28.2875,43.552018 Z"
       id="path2"
       sodipodi:nodetypes="sssscsszscs"
       inkscape:label="eyelid" /></g></svg>
