<?xml version="1.0" encoding="UTF-8" standalone="no"?>
<!-- Created with Inkscape (http://www.inkscape.org/) -->

<svg
   width="210mm"
   height="210mm"
   viewBox="0 0 210 210"
   version="1.1"
   id="svg1"
   xml:space="preserve"
   xmlns="http://www.w3.org/2000/svg"
   xmlns:svg="http://www.w3.org/2000/svg"><defs
     id="defs1" /><g
     id="layer2"><rect
       style="display:none;fill:#000000;fill-opacity:1;stroke:none;stroke-width:4.943;stroke-linejoin:round;stroke-opacity:1"
       id="rect1"
       width="210"
       height="210"
       x="0"
       y="0" /><path
       id="path1-0"
       style="fill:#000000;fill-opacity:1;stroke:#ffffff;stroke-width:11;stroke-dasharray:none;stroke-opacity:1;paint-order:markers stroke fill"
       d="m 75.984807,30.604991 c 7.735461,-2.255226 15.822376,-2.165188 23.542318,-0.635613 -3.231609,3.287828 -6.723162,11.834015 -9.975984,14.78524 -19.140032,1.12546 -19.451368,1.878423 -31.338256,13.529888 -6.080724,4.464763 -11.392392,20.310346 -11.142954,30.027772 0.331647,4.50466 -11.175548,0.741797 -10.032629,-4.919081 1.792495,-9.677457 2.941741,-25.445468 8.211124,-33.43866 7.26971,-9.518259 19.804678,-16.385858 30.736402,-19.349617 z m 43.407033,6.998006 c 23.16573,8.061361 32.16348,44.977029 25.62231,69.283743 -2.20147,8.73725 -10.89504,17.72548 -16.47487,24.56262 -1.34271,-13.53774 -1.31446,-17.36489 -6.40744,-27.91464 6.27329,-12.596754 9.9382,-25.503324 2.71457,-41.076102 -4.36152,-7.554376 -10.1153,-11.668951 -19.78254,-16.999833 2.86399,-2.454045 10.75358,-7.925956 14.32797,-7.855788 z M 52.147378,114.85466 c 8.790807,13.28752 15.138287,13.8474 30.147079,12.7676 8.58318,-0.12283 18.553543,-4.78314 27.060963,-8.80574 2.47077,8.04737 2.88103,11.46553 2.99326,22.15552 -7.27163,3.64666 -18.2028,8.95087 -26.200175,8.41466 -10.207802,1.00699 -20.851189,-2.72483 -29.366086,-8.54426 -3.859897,-2.63798 -7.309063,-6.36495 -10.41391,-9.85856 -5.654899,-6.38509 -5.535223,-10.64303 -8.191062,-19.03812 -1.338485,-3.75856 10.950376,-2.59325 13.969931,2.9089 z" /><path
       id="path5-8"
       style="display:inline;fill:#000000;fill-opacity:1;stroke:#ffffff;stroke-width:7.564;stroke-dasharray:none;stroke-opacity:1;paint-order:markers stroke fill"
       d="m 132.96586,15.041166 c 15.26036,-6.5163514 17.62838,-9.4734589 17.50273,2.435888 -0.43583,13.778094 -3.44445,30.134703 -9.1402,42.718438 -3.09984,-4.324122 -13.31808,-10.583047 -9.90782,-18.219704 1.64452,-4.231477 6.60165,-18.189623 4.51605,-17.201166 -16.76424,8.465631 -26.33936,15.901224 -41.387754,34.662554 -2.682312,3.330799 -12.663646,-3.534012 -10.045003,-7.204469 8.389573,-10.427886 11.855793,-16.924906 22.521027,-24.804382 7.38345,-5.581691 15.90377,-8.544808 24.19232,-11.876166 0.5829,-0.170308 2.04893,-1.614009 2.63181,-1.784294 z M 28.656086,57.405858 c 2.740806,0.106921 20.630747,-6.668836 19.344398,-2.39589 -2.799213,3.992599 -4.885898,14.126125 -10.396617,14.503254 -5.103773,1.529687 -13.487109,3.864727 -18.308052,6.295545 11.808603,15.098082 23.098571,18.972892 40.677764,21.606482 1.923381,0.276253 5.911198,12.741161 1.276267,12.536011 C 43.097791,109.00062 26.814312,100.74716 13.635302,87.693888 9.5118377,83.60979 5.7798546,79.056442 2.5319544,74.110838 0.60363608,71.602692 0.92211668,70.525807 4.0762814,68.582487 6.7663687,66.925091 12.110819,65.222492 13.46383,63.73011 18.528384,61.142311 26.379122,58.678407 31.669224,56.77356 Z m 34.043478,-2.336481 c 16.795637,3.009817 30.451882,6.981488 41.468436,20.896429 2.0415,2.470338 -5.766917,10.81703 -8.226569,9.331796 C 85.544202,76.329789 67.03849,66.288518 53.586347,65.675942 c 2.171215,-3.72556 4.968018,-9.499292 9.113217,-10.606565 z m 20.064455,29.21059 c -3.814001,16.912913 -4.497843,17.344493 -0.02485,34.085313 1.320532,2.39264 -11.697693,5.93709 -12.750227,0.17777 -6.21433,-18.03915 -5.02144,-25.079128 0.63473,-40.822228 3.011451,-4.216032 13.533821,1.820423 12.140352,6.559145 z M 123.57152,66.711598 c 1.06555,4.507254 3.22122,9.54106 1.07321,13.126574 -11.27591,14.771542 -23.15439,23.567368 -40.115059,28.032438 -1.967682,-0.58566 -4.099804,-13.490803 1.923789,-12.590298 15.06177,-4.591128 25.08517,-18.059679 34.16057,-32.03649 1.12037,-1.64053 2.31728,1.227052 2.95749,3.467776 z m -6.50812,29.387656 c 5.83314,12.363106 8.48396,25.067216 8.42532,39.304736 0.4778,15.37411 -2.99925,30.67903 -8.13792,45.11211 -3.09979,-2.03733 -6.49391,-3.84731 -9.49554,-6.09749 -8.820461,-6.61222 -12.637894,-8.67891 -18.858923,-18.22515 -2.363195,-3.2685 11.387903,-6.08064 14.369413,-2.72679 3.24437,2.86887 7.43858,12.87955 10.71316,1.30972 2.87344,-27.27384 -1.95639,-36.25985 -7.91073,-51.12766 -2.53509,-1.13512 8.79851,-10.047155 10.89522,-7.549476 z" /><path
       style="color:#000000;fill:#000000;fill-opacity:1;stroke:#ffffff;stroke-width:9;stroke-linecap:round;stroke-linejoin:round;stroke-dasharray:none;stroke-opacity:1;paint-order:markers stroke fill"
       d="M 51.927971,36.096106 C 38.96667,47.207166 14.847337,102.09197 14.866363,109.31236 l 0.04519,17.14824 c 0.0084,3.19229 31.458336,-52.462701 42.389892,-63.823353 5.936782,-6.169819 19.245099,-18.735019 51.345345,-12.332251 13.03942,3.10444 18.49239,6.554168 38.4545,26.377243 53.96751,53.591601 46.80119,118.248691 51.31491,114.155411 5.31369,-4.81874 4.86461,-7.04725 9.19191,-16.29068 1.6209,-3.46234 -7.64503,-55.904 -12.50977,-65.50377 C 178.10436,75.508371 169.58377,59.574744 156.65939,49.204704 140.2682,36.053023 115.63189,26.92502 98.058035,25.64691 67.799352,23.851187 64.229886,25.550305 51.927971,36.096106 Z"
       id="path2-2" /><path
       style="fill:#000000;fill-opacity:1;stroke:none;stroke-width:8.99999;stroke-linecap:round;stroke-linejoin:round;stroke-dasharray:none;stroke-opacity:1;paint-order:markers stroke fill"
       d="m 79.79888,98.284103 c -0.390533,-8.331368 0.650888,-12.497051 3.905329,-22.39055 7.810658,2.082842 14.649879,3.317024 20.247511,10.867326 -7.029586,7.940835 -12.306677,10.872336 -24.15284,11.523224 z"
       id="path1" /></g></svg>
